<!-- Uncomment following when using your own custom external stylesheet.-->
<!--
<?xml-stylesheet type="text/css" href="xppaut-stylesheet.css" ?>
-->
<svg  xmlns="http://www.w3.org/2000/svg"
      xmlns:xlink="http://www.w3.org/1999/xlink" font-size="12pt" width="640" height="400">


      <defs>
          <circle class="xpppointP" id = "xpppointP"  r = "1"  stroke-width = "1"/>
          <circle class="xppbead" id = "xppbead"  r = "1"  stroke-width = "1"/>
          <circle class="xpppointD" id = "xpppointD"  r = "1"  stroke-width = "1"/>
          <circle class="xpppointA" id = "xpppointA"  r = "1"  stroke-width = "1"/>
          <circle class="xpppointB" id = "xpppointB"  r = "1"  stroke-width = "1"/>
          <circle class="xpppointC" id = "xpppointC"  r = "1"  stroke-width = "1"/>
          <circle class="xpppointT" id = "xpppointT"  r = "1"  stroke-width = "1"/>
          <circle class="xpppointS" id = "xpppointS"  r = "1"  stroke-width = "1"/>
          <circle class="xpppointK" id = "xpppointK"  r = "3"  stroke-width = "0.75"/>
          <circle class="xpppointF" id = "xpppointF"  r = "2"  stroke-width = "0"/>
      </defs>



      <!-- Comment out the following style block when using your own custom external stylesheet.-->
      <!-- As a starting point for your custom external stylesheet, consider copying the style 
           information (between but not including CDATA tags) to a file named xppaut-stylesheet.css 
       -->
      <style type="text/css">
           <![CDATA[
      
                 circle.xpppointP {
                    stroke-width: 1.0;
                 }

                 circle.xpppointD {
                    stroke-width: 1.0;
                 }

                 circle.xpppointA {
                    stroke-width: 1.0;
                 }

                 circle.xpppointB {
                    stroke-width: 1.0;
                 }

                 circle.xpppointC {
                    stroke-width: 1.0;
                 }

                 circle.xpppointT {
                    stroke-width: 1.0;
                 }

                 circle.xpppointS {
                    stroke-width: 1.0;
                 }

                 circle.xpppointK {
                    stroke-width: 1.0;
                 }

                 circle.xpppointF {
                    stroke-width: 1.0;
                 }

                 line.xppaxes {
                    stroke: #000000;
                 }
                 line.xppboxaxes {
                    stroke: #000000;
                 }
                 line.xppdfield {
                    stroke: #000000;
                 }
                 line.xpplineb {
                    stroke: #000000;
                 }
                 line.xpplinea {
                    stroke-dasharray: 2,8;
                    stroke-width: 2;
                    stroke: #000000;
                 }
                 line.xppline0 {
                    stroke: #000000;
                 }
                 line.xppline1 {
                    stroke-width: 1;
                    stroke: #FF0000;
                 }
                 line.xppline2 {
                    stroke: #F06400;
                 }
                 line.xppline3 {
                    stroke: #FFA500;
                 }
                 line.xppline4 {
                    stroke: #FFCD00;
                 }
                 line.xppline5 {
                    stroke: #C8C800;
                 }
                 line.xppline6 {
                    stroke: #00FF00;
                 }
                 line.xppline7 {
                    stroke: #32CD32;
                 }
                 line.xppline8 {
                    stroke: #00C8C8;
                 }
                 line.xppline9 {
                    stroke: #0000FF;
                 }
                 line.xpplinec {
                    stroke: #000000;
                 }
                 
                 text.xpptext {
                    font-family: sans-serif;
                    font-size  : 1em;
                    stroke	: #000000;
                    fill	: #000000;
                    baseline-shift:-33%;
                    dominant-baseline: central;
                 }
                 text.xppyaxislabelh {
                    font-family: sans-serif;
                    font-size  : 1em;
                    stroke	: none;
                    fill	: none;
                    baseline-shift:-33%;
                    dominant-baseline: central;
                 }
                 text.xppyaxislabelv {
                    font-family: sans-serif;
                    font-size  : 1em;
                    stroke	: #000000;
                    fill	: #000000;
                    baseline-shift:-33%;
                    dominant-baseline: central;
                 }
                 text.xppaxestext {
                    font-family: sans-serif;
                    font-size  : 1em;
                    stroke	: #000000;
                    fill	: #000000;
                    baseline-shift:-33%;
                    dominant-baseline: central;
                 }
                 
                 text.xpptext0 {
                    font-family: sans-serif;
                    font-size  : 0.5em;
                    stroke	: #000000;
                    fill	: #000000;
                    baseline-shift:-33%;
                    dominant-baseline: central;
                 }
                 
                 text.xpptext1 {
                    font-family: sans-serif;
                    font-size  : 0.75em;
                    stroke	: #000000;
                    fill	: #000000;
                    baseline-shift:-33%;
                    dominant-baseline: central;
                 }
                 
                 text.xpptext2 {
                    font-family: sans-serif;
                    font-size  : 1em;
                    stroke	: #000000;
                    fill	: #000000;
                    baseline-shift:-33%;
                    dominant-baseline: central;
                 }
                 
                 text.xpptext3 {
                    font-family: sans-serif;
                    font-size  : 1.25em;
                    stroke	: #000000;
                    fill	: #000000;
                    baseline-shift:-33%;
                    dominant-baseline: central;
                 }
                 
                 text.xpptext4 {
                    font-family: sans-serif;
                    font-size  : 1.5em;
                    stroke	: #000000;
                    fill	: #000000;
                    baseline-shift:-33%;
                    dominant-baseline: central;
                 }
           ]]>
      </style>

<g>
      <line class="xppline0"  x1="400"  y1="173" x2="400"   y2="173" />
      <line class="xppline0"  x1="400"  y1="173" x2="400"   y2="173" />
      <line class="xppline0"  x1="400"  y1="173" x2="400"   y2="173" />
      <line class="xppline0"  x1="400"  y1="173" x2="400"   y2="173" />
      <line class="xppline0"  x1="400"  y1="173" x2="400"   y2="173" />
      <line class="xppline0"  x1="400"  y1="173" x2="400"   y2="173" />
      <line class="xppline0"  x1="400"  y1="173" x2="400"   y2="173" />
      <line class="xppline0"  x1="400"  y1="173" x2="400"   y2="173" />
      <line class="xppline0"  x1="400"  y1="173" x2="400"   y2="173" />
      <line class="xppline0"  x1="400"  y1="173" x2="400"   y2="173" />
      <line class="xppline0"  x1="400"  y1="173" x2="400"   y2="173" />
      <line class="xppline0"  x1="400"  y1="173" x2="400"   y2="174" />
      <line class="xppline0"  x1="400"  y1="174" x2="400"   y2="174" />
      <line class="xppline0"  x1="400"  y1="174" x2="400"   y2="174" />
      <line class="xppline0"  x1="400"  y1="174" x2="400"   y2="174" />
      <line class="xppline0"  x1="400"  y1="174" x2="400"   y2="174" />
      <line class="xppline0"  x1="400"  y1="174" x2="400"   y2="174" />
      <line class="xppline0"  x1="400"  y1="174" x2="400"   y2="174" />
      <line class="xppline0"  x1="400"  y1="174" x2="401"   y2="174" />
      <line class="xppline0"  x1="401"  y1="174" x2="401"   y2="174" />
      <line class="xppline0"  x1="401"  y1="174" x2="401"   y2="174" />
      <line class="xppline0"  x1="401"  y1="174" x2="401"   y2="174" />
      <line class="xppline0"  x1="401"  y1="174" x2="401"   y2="174" />
      <line class="xppline0"  x1="401"  y1="174" x2="401"   y2="174" />
      <line class="xppline0"  x1="401"  y1="174" x2="401"   y2="174" />
      <line class="xppline0"  x1="401"  y1="174" x2="401"   y2="174" />
      <line class="xppline0"  x1="401"  y1="174" x2="401"   y2="174" />
      <line class="xppline0"  x1="401"  y1="174" x2="401"   y2="174" />
      <line class="xppline0"  x1="401"  y1="174" x2="401"   y2="174" />
      <line class="xppline0"  x1="401"  y1="174" x2="401"   y2="174" />
      <line class="xppline0"  x1="401"  y1="174" x2="401"   y2="174" />
      <line class="xppline0"  x1="401"  y1="174" x2="401"   y2="174" />
      <line class="xppline0"  x1="401"  y1="174" x2="401"   y2="174" />
      <line class="xppline0"  x1="401"  y1="174" x2="401"   y2="174" />
      <line class="xppline0"  x1="401"  y1="174" x2="401"   y2="174" />
      <line class="xppline0"  x1="401"  y1="174" x2="401"   y2="174" />
      <line class="xppline0"  x1="401"  y1="174" x2="401"   y2="174" />
      <line class="xppline0"  x1="401"  y1="174" x2="402"   y2="174" />
      <line class="xppline0"  x1="402"  y1="174" x2="402"   y2="174" />
      <line class="xppline0"  x1="402"  y1="174" x2="402"   y2="174" />
      <line class="xppline0"  x1="402"  y1="174" x2="402"   y2="174" />
      <line class="xppline0"  x1="402"  y1="174" x2="402"   y2="174" />
      <line class="xppline0"  x1="402"  y1="174" x2="402"   y2="175" />
      <line class="xppline0"  x1="402"  y1="175" x2="402"   y2="175" />
      <line class="xppline0"  x1="402"  y1="175" x2="402"   y2="175" />
      <line class="xppline0"  x1="402"  y1="175" x2="402"   y2="175" />
      <line class="xppline0"  x1="402"  y1="175" x2="402"   y2="175" />
      <line class="xppline0"  x1="402"  y1="175" x2="402"   y2="175" />
      <line class="xppline0"  x1="402"  y1="175" x2="402"   y2="175" />
      <line class="xppline0"  x1="402"  y1="175" x2="402"   y2="175" />
      <line class="xppline0"  x1="402"  y1="175" x2="402"   y2="175" />
      <line class="xppline0"  x1="402"  y1="175" x2="402"   y2="175" />
      <line class="xppline0"  x1="402"  y1="175" x2="403"   y2="175" />
      <line class="xppline0"  x1="403"  y1="175" x2="403"   y2="175" />
      <line class="xppline0"  x1="403"  y1="175" x2="403"   y2="175" />
      <line class="xppline0"  x1="403"  y1="175" x2="403"   y2="175" />
      <line class="xppline0"  x1="403"  y1="175" x2="403"   y2="175" />
      <line class="xppline0"  x1="403"  y1="175" x2="403"   y2="175" />
      <line class="xppline0"  x1="403"  y1="175" x2="403"   y2="175" />
      <line class="xppline0"  x1="403"  y1="175" x2="403"   y2="175" />
      <line class="xppline0"  x1="403"  y1="175" x2="403"   y2="175" />
      <line class="xppline0"  x1="403"  y1="175" x2="403"   y2="175" />
      <line class="xppline0"  x1="403"  y1="175" x2="403"   y2="175" />
      <line class="xppline0"  x1="403"  y1="175" x2="403"   y2="175" />
      <line class="xppline0"  x1="403"  y1="175" x2="404"   y2="175" />
      <line class="xppline0"  x1="404"  y1="175" x2="404"   y2="175" />
      <line class="xppline0"  x1="404"  y1="175" x2="404"   y2="175" />
      <line class="xppline0"  x1="404"  y1="175" x2="404"   y2="175" />
      <line class="xppline0"  x1="404"  y1="175" x2="404"   y2="175" />
      <line class="xppline0"  x1="404"  y1="175" x2="404"   y2="175" />
      <line class="xppline0"  x1="404"  y1="175" x2="404"   y2="175" />
      <line class="xppline0"  x1="404"  y1="175" x2="404"   y2="175" />
      <line class="xppline0"  x1="404"  y1="175" x2="404"   y2="175" />
      <line class="xppline0"  x1="404"  y1="175" x2="404"   y2="176" />
      <line class="xppline0"  x1="404"  y1="176" x2="404"   y2="176" />
      <line class="xppline0"  x1="404"  y1="176" x2="404"   y2="176" />
      <line class="xppline0"  x1="404"  y1="176" x2="405"   y2="176" />
      <line class="xppline0"  x1="405"  y1="176" x2="405"   y2="176" />
      <line class="xppline0"  x1="405"  y1="176" x2="405"   y2="176" />
      <line class="xppline0"  x1="405"  y1="176" x2="405"   y2="176" />
      <line class="xppline0"  x1="405"  y1="176" x2="405"   y2="176" />
      <line class="xppline0"  x1="405"  y1="176" x2="405"   y2="176" />
      <line class="xppline0"  x1="405"  y1="176" x2="405"   y2="176" />
      <line class="xppline0"  x1="405"  y1="176" x2="405"   y2="176" />
      <line class="xppline0"  x1="405"  y1="176" x2="405"   y2="176" />
      <line class="xppline0"  x1="405"  y1="176" x2="405"   y2="176" />
      <line class="xppline0"  x1="405"  y1="176" x2="405"   y2="176" />
      <line class="xppline0"  x1="405"  y1="176" x2="406"   y2="176" />
      <line class="xppline0"  x1="406"  y1="176" x2="406"   y2="176" />
      <line class="xppline0"  x1="406"  y1="176" x2="406"   y2="176" />
      <line class="xppline0"  x1="406"  y1="176" x2="406"   y2="176" />
      <line class="xppline0"  x1="406"  y1="176" x2="406"   y2="176" />
      <line class="xppline0"  x1="406"  y1="176" x2="406"   y2="176" />
      <line class="xppline0"  x1="406"  y1="176" x2="406"   y2="176" />
      <line class="xppline0"  x1="406"  y1="176" x2="406"   y2="176" />
      <line class="xppline0"  x1="406"  y1="176" x2="406"   y2="176" />
      <line class="xppline0"  x1="406"  y1="176" x2="406"   y2="176" />
      <line class="xppline0"  x1="406"  y1="176" x2="407"   y2="176" />
      <line class="xppline0"  x1="407"  y1="176" x2="407"   y2="176" />
      <line class="xppline0"  x1="407"  y1="176" x2="407"   y2="176" />
      <line class="xppline0"  x1="407"  y1="176" x2="407"   y2="176" />
      <line class="xppline0"  x1="407"  y1="176" x2="407"   y2="177" />
      <line class="xppline0"  x1="407"  y1="177" x2="407"   y2="177" />
      <line class="xppline0"  x1="407"  y1="177" x2="407"   y2="177" />
      <line class="xppline0"  x1="407"  y1="177" x2="407"   y2="177" />
      <line class="xppline0"  x1="407"  y1="177" x2="407"   y2="177" />
      <line class="xppline0"  x1="407"  y1="177" x2="407"   y2="177" />
      <line class="xppline0"  x1="407"  y1="177" x2="408"   y2="177" />
      <line class="xppline0"  x1="408"  y1="177" x2="408"   y2="177" />
      <line class="xppline0"  x1="408"  y1="177" x2="408"   y2="177" />
      <line class="xppline0"  x1="408"  y1="177" x2="408"   y2="177" />
      <line class="xppline0"  x1="408"  y1="177" x2="408"   y2="177" />
      <line class="xppline0"  x1="408"  y1="177" x2="408"   y2="177" />
      <line class="xppline0"  x1="408"  y1="177" x2="408"   y2="177" />
      <line class="xppline0"  x1="408"  y1="177" x2="408"   y2="177" />
      <line class="xppline0"  x1="408"  y1="177" x2="408"   y2="177" />
      <line class="xppline0"  x1="408"  y1="177" x2="409"   y2="177" />
      <line class="xppline0"  x1="409"  y1="177" x2="409"   y2="177" />
      <line class="xppline0"  x1="409"  y1="177" x2="409"   y2="177" />
      <line class="xppline0"  x1="409"  y1="177" x2="409"   y2="177" />
      <line class="xppline0"  x1="409"  y1="177" x2="409"   y2="177" />
      <line class="xppline0"  x1="409"  y1="177" x2="409"   y2="177" />
      <line class="xppline0"  x1="409"  y1="177" x2="409"   y2="177" />
      <line class="xppline0"  x1="409"  y1="177" x2="409"   y2="177" />
      <line class="xppline0"  x1="409"  y1="177" x2="409"   y2="177" />
      <line class="xppline0"  x1="409"  y1="177" x2="410"   y2="178" />
      <line class="xppline0"  x1="410"  y1="178" x2="410"   y2="178" />
      <line class="xppline0"  x1="410"  y1="178" x2="410"   y2="178" />
      <line class="xppline0"  x1="410"  y1="178" x2="410"   y2="178" />
      <line class="xppline0"  x1="410"  y1="178" x2="410"   y2="178" />
      <line class="xppline0"  x1="410"  y1="178" x2="410"   y2="178" />
      <line class="xppline0"  x1="410"  y1="178" x2="410"   y2="178" />
      <line class="xppline0"  x1="410"  y1="178" x2="410"   y2="178" />
      <line class="xppline0"  x1="410"  y1="178" x2="410"   y2="178" />
      <line class="xppline0"  x1="410"  y1="178" x2="411"   y2="178" />
      <line class="xppline0"  x1="411"  y1="178" x2="411"   y2="178" />
      <line class="xppline0"  x1="411"  y1="178" x2="411"   y2="178" />
      <line class="xppline0"  x1="411"  y1="178" x2="411"   y2="178" />
      <line class="xppline0"  x1="411"  y1="178" x2="411"   y2="178" />
      <line class="xppline0"  x1="411"  y1="178" x2="411"   y2="178" />
      <line class="xppline0"  x1="411"  y1="178" x2="411"   y2="178" />
      <line class="xppline0"  x1="411"  y1="178" x2="411"   y2="178" />
      <line class="xppline0"  x1="411"  y1="178" x2="412"   y2="178" />
      <line class="xppline0"  x1="412"  y1="178" x2="412"   y2="178" />
      <line class="xppline0"  x1="412"  y1="178" x2="412"   y2="178" />
      <line class="xppline0"  x1="412"  y1="178" x2="412"   y2="178" />
      <line class="xppline0"  x1="412"  y1="178" x2="412"   y2="179" />
      <line class="xppline0"  x1="412"  y1="179" x2="412"   y2="179" />
      <line class="xppline0"  x1="412"  y1="179" x2="412"   y2="179" />
      <line class="xppline0"  x1="412"  y1="179" x2="413"   y2="179" />
      <line class="xppline0"  x1="413"  y1="179" x2="413"   y2="179" />
      <line class="xppline0"  x1="413"  y1="179" x2="413"   y2="179" />
      <line class="xppline0"  x1="413"  y1="179" x2="413"   y2="179" />
      <line class="xppline0"  x1="413"  y1="179" x2="413"   y2="179" />
      <line class="xppline0"  x1="413"  y1="179" x2="413"   y2="179" />
      <line class="xppline0"  x1="413"  y1="179" x2="413"   y2="179" />
      <line class="xppline0"  x1="413"  y1="179" x2="413"   y2="179" />
      <line class="xppline0"  x1="413"  y1="179" x2="414"   y2="179" />
      <line class="xppline0"  x1="414"  y1="179" x2="414"   y2="179" />
      <line class="xppline0"  x1="414"  y1="179" x2="414"   y2="179" />
      <line class="xppline0"  x1="414"  y1="179" x2="414"   y2="179" />
      <line class="xppline0"  x1="414"  y1="179" x2="414"   y2="179" />
      <line class="xppline0"  x1="414"  y1="179" x2="414"   y2="179" />
      <line class="xppline0"  x1="414"  y1="179" x2="414"   y2="179" />
      <line class="xppline0"  x1="414"  y1="179" x2="415"   y2="179" />
      <line class="xppline0"  x1="415"  y1="179" x2="415"   y2="180" />
      <line class="xppline0"  x1="415"  y1="180" x2="415"   y2="180" />
      <line class="xppline0"  x1="415"  y1="180" x2="415"   y2="180" />
      <line class="xppline0"  x1="415"  y1="180" x2="415"   y2="180" />
      <line class="xppline0"  x1="415"  y1="180" x2="415"   y2="180" />
      <line class="xppline0"  x1="415"  y1="180" x2="415"   y2="180" />
      <line class="xppline0"  x1="415"  y1="180" x2="416"   y2="180" />
      <line class="xppline0"  x1="416"  y1="180" x2="416"   y2="180" />
      <line class="xppline0"  x1="416"  y1="180" x2="416"   y2="180" />
      <line class="xppline0"  x1="416"  y1="180" x2="416"   y2="180" />
      <line class="xppline0"  x1="416"  y1="180" x2="416"   y2="180" />
      <line class="xppline0"  x1="416"  y1="180" x2="416"   y2="180" />
      <line class="xppline0"  x1="416"  y1="180" x2="416"   y2="180" />
      <line class="xppline0"  x1="416"  y1="180" x2="417"   y2="180" />
      <line class="xppline0"  x1="417"  y1="180" x2="417"   y2="180" />
      <line class="xppline0"  x1="417"  y1="180" x2="417"   y2="180" />
      <line class="xppline0"  x1="417"  y1="180" x2="417"   y2="180" />
      <line class="xppline0"  x1="417"  y1="180" x2="417"   y2="181" />
      <line class="xppline0"  x1="417"  y1="181" x2="417"   y2="181" />
      <line class="xppline0"  x1="417"  y1="181" x2="418"   y2="181" />
      <line class="xppline0"  x1="418"  y1="181" x2="418"   y2="181" />
      <line class="xppline0"  x1="418"  y1="181" x2="418"   y2="181" />
      <line class="xppline0"  x1="418"  y1="181" x2="418"   y2="181" />
      <line class="xppline0"  x1="418"  y1="181" x2="418"   y2="181" />
      <line class="xppline0"  x1="418"  y1="181" x2="418"   y2="181" />
      <line class="xppline0"  x1="418"  y1="181" x2="418"   y2="181" />
      <line class="xppline0"  x1="418"  y1="181" x2="419"   y2="181" />
      <line class="xppline0"  x1="419"  y1="181" x2="419"   y2="181" />
      <line class="xppline0"  x1="419"  y1="181" x2="419"   y2="181" />
      <line class="xppline0"  x1="419"  y1="181" x2="419"   y2="181" />
      <line class="xppline0"  x1="419"  y1="181" x2="419"   y2="181" />
      <line class="xppline0"  x1="419"  y1="181" x2="419"   y2="181" />
      <line class="xppline0"  x1="419"  y1="181" x2="420"   y2="181" />
      <line class="xppline0"  x1="420"  y1="181" x2="420"   y2="182" />
      <line class="xppline0"  x1="420"  y1="182" x2="420"   y2="182" />
      <line class="xppline0"  x1="420"  y1="182" x2="420"   y2="182" />
      <line class="xppline0"  x1="420"  y1="182" x2="420"   y2="182" />
      <line class="xppline0"  x1="420"  y1="182" x2="420"   y2="182" />
      <line class="xppline0"  x1="420"  y1="182" x2="421"   y2="182" />
      <line class="xppline0"  x1="421"  y1="182" x2="421"   y2="182" />
      <line class="xppline0"  x1="421"  y1="182" x2="421"   y2="182" />
      <line class="xppline0"  x1="421"  y1="182" x2="421"   y2="182" />
      <line class="xppline0"  x1="421"  y1="182" x2="421"   y2="182" />
      <line class="xppline0"  x1="421"  y1="182" x2="421"   y2="182" />
      <line class="xppline0"  x1="421"  y1="182" x2="422"   y2="182" />
      <line class="xppline0"  x1="422"  y1="182" x2="422"   y2="182" />
      <line class="xppline0"  x1="422"  y1="182" x2="422"   y2="182" />
      <line class="xppline0"  x1="422"  y1="182" x2="422"   y2="183" />
      <line class="xppline0"  x1="422"  y1="183" x2="422"   y2="183" />
      <line class="xppline0"  x1="422"  y1="183" x2="423"   y2="183" />
      <line class="xppline0"  x1="423"  y1="183" x2="423"   y2="183" />
      <line class="xppline0"  x1="423"  y1="183" x2="423"   y2="183" />
      <line class="xppline0"  x1="423"  y1="183" x2="423"   y2="183" />
      <line class="xppline0"  x1="423"  y1="183" x2="423"   y2="183" />
      <line class="xppline0"  x1="423"  y1="183" x2="423"   y2="183" />
      <line class="xppline0"  x1="423"  y1="183" x2="424"   y2="183" />
      <line class="xppline0"  x1="424"  y1="183" x2="424"   y2="183" />
      <line class="xppline0"  x1="424"  y1="183" x2="424"   y2="183" />
      <line class="xppline0"  x1="424"  y1="183" x2="424"   y2="183" />
      <line class="xppline0"  x1="424"  y1="183" x2="424"   y2="183" />
      <line class="xppline0"  x1="424"  y1="183" x2="425"   y2="183" />
      <line class="xppline0"  x1="425"  y1="183" x2="425"   y2="184" />
      <line class="xppline0"  x1="425"  y1="184" x2="425"   y2="184" />
      <line class="xppline0"  x1="425"  y1="184" x2="425"   y2="184" />
      <line class="xppline0"  x1="425"  y1="184" x2="425"   y2="184" />
      <line class="xppline0"  x1="425"  y1="184" x2="426"   y2="184" />
      <line class="xppline0"  x1="426"  y1="184" x2="426"   y2="184" />
      <line class="xppline0"  x1="426"  y1="184" x2="426"   y2="184" />
      <line class="xppline0"  x1="426"  y1="184" x2="426"   y2="184" />
      <line class="xppline0"  x1="426"  y1="184" x2="426"   y2="184" />
      <line class="xppline0"  x1="426"  y1="184" x2="427"   y2="184" />
      <line class="xppline0"  x1="427"  y1="184" x2="427"   y2="184" />
      <line class="xppline0"  x1="427"  y1="184" x2="427"   y2="184" />
      <line class="xppline0"  x1="427"  y1="184" x2="427"   y2="184" />
      <line class="xppline0"  x1="427"  y1="184" x2="427"   y2="185" />
      <line class="xppline0"  x1="427"  y1="185" x2="428"   y2="185" />
      <line class="xppline0"  x1="428"  y1="185" x2="428"   y2="185" />
      <line class="xppline0"  x1="428"  y1="185" x2="428"   y2="185" />
      <line class="xppline0"  x1="428"  y1="185" x2="428"   y2="185" />
      <line class="xppline0"  x1="428"  y1="185" x2="428"   y2="185" />
      <line class="xppline0"  x1="428"  y1="185" x2="429"   y2="185" />
      <line class="xppline0"  x1="429"  y1="185" x2="429"   y2="185" />
      <line class="xppline0"  x1="429"  y1="185" x2="429"   y2="185" />
      <line class="xppline0"  x1="429"  y1="185" x2="429"   y2="185" />
      <line class="xppline0"  x1="429"  y1="185" x2="429"   y2="185" />
      <line class="xppline0"  x1="429"  y1="185" x2="430"   y2="186" />
      <line class="xppline0"  x1="430"  y1="186" x2="430"   y2="186" />
      <line class="xppline0"  x1="430"  y1="186" x2="430"   y2="186" />
      <line class="xppline0"  x1="430"  y1="186" x2="430"   y2="186" />
      <line class="xppline0"  x1="430"  y1="186" x2="430"   y2="186" />
      <line class="xppline0"  x1="430"  y1="186" x2="431"   y2="186" />
      <line class="xppline0"  x1="431"  y1="186" x2="431"   y2="186" />
      <line class="xppline0"  x1="431"  y1="186" x2="431"   y2="186" />
      <line class="xppline0"  x1="431"  y1="186" x2="431"   y2="186" />
      <line class="xppline0"  x1="431"  y1="186" x2="432"   y2="186" />
      <line class="xppline0"  x1="432"  y1="186" x2="432"   y2="186" />
      <line class="xppline0"  x1="432"  y1="186" x2="432"   y2="186" />
      <line class="xppline0"  x1="432"  y1="186" x2="432"   y2="187" />
      <line class="xppline0"  x1="432"  y1="187" x2="432"   y2="187" />
      <line class="xppline0"  x1="432"  y1="187" x2="433"   y2="187" />
      <line class="xppline0"  x1="433"  y1="187" x2="433"   y2="187" />
      <line class="xppline0"  x1="433"  y1="187" x2="433"   y2="187" />
      <line class="xppline0"  x1="433"  y1="187" x2="433"   y2="187" />
      <line class="xppline0"  x1="433"  y1="187" x2="434"   y2="187" />
      <line class="xppline0"  x1="434"  y1="187" x2="434"   y2="187" />
      <line class="xppline0"  x1="434"  y1="187" x2="434"   y2="187" />
      <line class="xppline0"  x1="434"  y1="187" x2="434"   y2="187" />
      <line class="xppline0"  x1="434"  y1="187" x2="435"   y2="188" />
      <line class="xppline0"  x1="435"  y1="188" x2="435"   y2="188" />
      <line class="xppline0"  x1="435"  y1="188" x2="435"   y2="188" />
      <line class="xppline0"  x1="435"  y1="188" x2="435"   y2="188" />
      <line class="xppline0"  x1="435"  y1="188" x2="435"   y2="188" />
      <line class="xppline0"  x1="435"  y1="188" x2="436"   y2="188" />
      <line class="xppline0"  x1="436"  y1="188" x2="436"   y2="188" />
      <line class="xppline0"  x1="436"  y1="188" x2="436"   y2="188" />
      <line class="xppline0"  x1="436"  y1="188" x2="436"   y2="188" />
      <line class="xppline0"  x1="436"  y1="188" x2="437"   y2="188" />
      <line class="xppline0"  x1="437"  y1="188" x2="437"   y2="189" />
      <line class="xppline0"  x1="437"  y1="189" x2="437"   y2="189" />
      <line class="xppline0"  x1="437"  y1="189" x2="437"   y2="189" />
      <line class="xppline0"  x1="437"  y1="189" x2="438"   y2="189" />
      <line class="xppline0"  x1="438"  y1="189" x2="438"   y2="189" />
      <line class="xppline0"  x1="438"  y1="189" x2="438"   y2="189" />
      <line class="xppline0"  x1="438"  y1="189" x2="438"   y2="189" />
      <line class="xppline0"  x1="438"  y1="189" x2="439"   y2="189" />
      <line class="xppline0"  x1="439"  y1="189" x2="439"   y2="189" />
      <line class="xppline0"  x1="439"  y1="189" x2="439"   y2="189" />
      <line class="xppline0"  x1="439"  y1="189" x2="439"   y2="190" />
      <line class="xppline0"  x1="439"  y1="190" x2="440"   y2="190" />
      <line class="xppline0"  x1="440"  y1="190" x2="440"   y2="190" />
      <line class="xppline0"  x1="440"  y1="190" x2="440"   y2="190" />
      <line class="xppline0"  x1="440"  y1="190" x2="441"   y2="190" />
      <line class="xppline0"  x1="441"  y1="190" x2="441"   y2="190" />
      <line class="xppline0"  x1="441"  y1="190" x2="441"   y2="190" />
      <line class="xppline0"  x1="441"  y1="190" x2="441"   y2="190" />
      <line class="xppline0"  x1="441"  y1="190" x2="442"   y2="190" />
      <line class="xppline0"  x1="442"  y1="190" x2="442"   y2="191" />
      <line class="xppline0"  x1="442"  y1="191" x2="442"   y2="191" />
      <line class="xppline0"  x1="442"  y1="191" x2="442"   y2="191" />
      <line class="xppline0"  x1="442"  y1="191" x2="443"   y2="191" />
      <line class="xppline0"  x1="443"  y1="191" x2="443"   y2="191" />
      <line class="xppline0"  x1="443"  y1="191" x2="443"   y2="191" />
      <line class="xppline0"  x1="443"  y1="191" x2="444"   y2="191" />
      <line class="xppline0"  x1="444"  y1="191" x2="444"   y2="191" />
      <line class="xppline0"  x1="444"  y1="191" x2="444"   y2="192" />
      <line class="xppline0"  x1="444"  y1="192" x2="444"   y2="192" />
      <line class="xppline0"  x1="444"  y1="192" x2="445"   y2="192" />
      <line class="xppline0"  x1="445"  y1="192" x2="445"   y2="192" />
      <line class="xppline0"  x1="445"  y1="192" x2="445"   y2="192" />
      <line class="xppline0"  x1="445"  y1="192" x2="446"   y2="192" />
      <line class="xppline0"  x1="446"  y1="192" x2="446"   y2="192" />
      <line class="xppline0"  x1="446"  y1="192" x2="446"   y2="192" />
      <line class="xppline0"  x1="446"  y1="192" x2="446"   y2="193" />
      <line class="xppline0"  x1="446"  y1="193" x2="447"   y2="193" />
      <line class="xppline0"  x1="447"  y1="193" x2="447"   y2="193" />
      <line class="xppline0"  x1="447"  y1="193" x2="447"   y2="193" />
      <line class="xppline0"  x1="447"  y1="193" x2="448"   y2="193" />
      <line class="xppline0"  x1="448"  y1="193" x2="448"   y2="193" />
      <line class="xppline0"  x1="448"  y1="193" x2="448"   y2="193" />
      <line class="xppline0"  x1="448"  y1="193" x2="449"   y2="193" />
      <line class="xppline0"  x1="449"  y1="193" x2="449"   y2="194" />
      <line class="xppline0"  x1="449"  y1="194" x2="449"   y2="194" />
      <line class="xppline0"  x1="449"  y1="194" x2="450"   y2="194" />
      <line class="xppline0"  x1="450"  y1="194" x2="450"   y2="194" />
      <line class="xppline0"  x1="450"  y1="194" x2="450"   y2="194" />
      <line class="xppline0"  x1="450"  y1="194" x2="451"   y2="194" />
      <line class="xppline0"  x1="451"  y1="194" x2="451"   y2="194" />
      <line class="xppline0"  x1="451"  y1="194" x2="451"   y2="195" />
      <line class="xppline0"  x1="451"  y1="195" x2="452"   y2="195" />
      <line class="xppline0"  x1="452"  y1="195" x2="452"   y2="195" />
      <line class="xppline0"  x1="452"  y1="195" x2="452"   y2="195" />
      <line class="xppline0"  x1="452"  y1="195" x2="453"   y2="195" />
      <line class="xppline0"  x1="453"  y1="195" x2="453"   y2="195" />
      <line class="xppline0"  x1="453"  y1="195" x2="453"   y2="195" />
      <line class="xppline0"  x1="453"  y1="195" x2="454"   y2="196" />
      <line class="xppline0"  x1="454"  y1="196" x2="454"   y2="196" />
      <line class="xppline0"  x1="454"  y1="196" x2="454"   y2="196" />
      <line class="xppline0"  x1="454"  y1="196" x2="455"   y2="196" />
      <line class="xppline0"  x1="455"  y1="196" x2="455"   y2="196" />
      <line class="xppline0"  x1="455"  y1="196" x2="455"   y2="196" />
      <line class="xppline0"  x1="455"  y1="196" x2="456"   y2="196" />
      <line class="xppline0"  x1="456"  y1="196" x2="456"   y2="197" />
      <line class="xppline0"  x1="456"  y1="197" x2="456"   y2="197" />
      <line class="xppline0"  x1="456"  y1="197" x2="457"   y2="197" />
      <line class="xppline0"  x1="457"  y1="197" x2="457"   y2="197" />
      <line class="xppline0"  x1="457"  y1="197" x2="457"   y2="197" />
      <line class="xppline0"  x1="457"  y1="197" x2="458"   y2="197" />
      <line class="xppline0"  x1="458"  y1="197" x2="458"   y2="198" />
      <line class="xppline0"  x1="458"  y1="198" x2="459"   y2="198" />
      <line class="xppline0"  x1="459"  y1="198" x2="459"   y2="198" />
      <line class="xppline0"  x1="459"  y1="198" x2="459"   y2="198" />
      <line class="xppline0"  x1="459"  y1="198" x2="460"   y2="198" />
      <line class="xppline0"  x1="460"  y1="198" x2="460"   y2="198" />
      <line class="xppline0"  x1="460"  y1="198" x2="461"   y2="199" />
      <line class="xppline0"  x1="461"  y1="199" x2="461"   y2="199" />
      <line class="xppline0"  x1="461"  y1="199" x2="461"   y2="199" />
      <line class="xppline0"  x1="461"  y1="199" x2="462"   y2="199" />
      <line class="xppline0"  x1="462"  y1="199" x2="462"   y2="199" />
      <line class="xppline0"  x1="462"  y1="199" x2="463"   y2="199" />
      <line class="xppline0"  x1="463"  y1="199" x2="463"   y2="200" />
      <line class="xppline0"  x1="463"  y1="200" x2="463"   y2="200" />
      <line class="xppline0"  x1="463"  y1="200" x2="464"   y2="200" />
      <line class="xppline0"  x1="464"  y1="200" x2="464"   y2="200" />
      <line class="xppline0"  x1="464"  y1="200" x2="465"   y2="200" />
      <line class="xppline0"  x1="465"  y1="200" x2="465"   y2="201" />
      <line class="xppline0"  x1="465"  y1="201" x2="466"   y2="201" />
      <line class="xppline0"  x1="466"  y1="201" x2="466"   y2="201" />
      <line class="xppline0"  x1="466"  y1="201" x2="466"   y2="201" />
      <line class="xppline0"  x1="466"  y1="201" x2="467"   y2="201" />
      <line class="xppline0"  x1="467"  y1="201" x2="467"   y2="202" />
      <line class="xppline0"  x1="467"  y1="202" x2="468"   y2="202" />
      <line class="xppline0"  x1="468"  y1="202" x2="468"   y2="202" />
      <line class="xppline0"  x1="468"  y1="202" x2="469"   y2="202" />
      <line class="xppline0"  x1="469"  y1="202" x2="469"   y2="202" />
      <line class="xppline0"  x1="469"  y1="202" x2="470"   y2="203" />
      <line class="xppline0"  x1="470"  y1="203" x2="470"   y2="203" />
      <line class="xppline0"  x1="470"  y1="203" x2="471"   y2="203" />
      <line class="xppline0"  x1="471"  y1="203" x2="471"   y2="203" />
      <line class="xppline0"  x1="471"  y1="203" x2="472"   y2="203" />
      <line class="xppline0"  x1="472"  y1="203" x2="472"   y2="204" />
      <line class="xppline0"  x1="472"  y1="204" x2="473"   y2="204" />
      <line class="xppline0"  x1="473"  y1="204" x2="473"   y2="204" />
      <line class="xppline0"  x1="473"  y1="204" x2="474"   y2="204" />
      <line class="xppline0"  x1="474"  y1="204" x2="474"   y2="205" />
      <line class="xppline0"  x1="474"  y1="205" x2="475"   y2="205" />
      <line class="xppline0"  x1="475"  y1="205" x2="475"   y2="205" />
      <line class="xppline0"  x1="475"  y1="205" x2="476"   y2="205" />
      <line class="xppline0"  x1="476"  y1="205" x2="476"   y2="206" />
      <line class="xppline0"  x1="476"  y1="206" x2="477"   y2="206" />
      <line class="xppline0"  x1="477"  y1="206" x2="477"   y2="206" />
      <line class="xppline0"  x1="477"  y1="206" x2="478"   y2="206" />
      <line class="xppline0"  x1="478"  y1="206" x2="478"   y2="207" />
      <line class="xppline0"  x1="478"  y1="207" x2="479"   y2="207" />
      <line class="xppline0"  x1="479"  y1="207" x2="480"   y2="207" />
      <line class="xppline0"  x1="480"  y1="207" x2="480"   y2="207" />
      <line class="xppline0"  x1="480"  y1="207" x2="481"   y2="208" />
      <line class="xppline0"  x1="481"  y1="208" x2="481"   y2="208" />
      <line class="xppline0"  x1="481"  y1="208" x2="482"   y2="208" />
      <line class="xppline0"  x1="482"  y1="208" x2="483"   y2="208" />
      <line class="xppline0"  x1="483"  y1="208" x2="483"   y2="209" />
      <line class="xppline0"  x1="483"  y1="209" x2="484"   y2="209" />
      <line class="xppline0"  x1="484"  y1="209" x2="485"   y2="209" />
      <line class="xppline0"  x1="485"  y1="209" x2="485"   y2="210" />
      <line class="xppline0"  x1="485"  y1="210" x2="486"   y2="210" />
      <line class="xppline0"  x1="486"  y1="210" x2="487"   y2="210" />
      <line class="xppline0"  x1="487"  y1="210" x2="487"   y2="211" />
      <line class="xppline0"  x1="487"  y1="211" x2="488"   y2="211" />
      <line class="xppline0"  x1="488"  y1="211" x2="489"   y2="211" />
      <line class="xppline0"  x1="489"  y1="211" x2="489"   y2="211" />
      <line class="xppline0"  x1="489"  y1="211" x2="490"   y2="212" />
      <line class="xppline0"  x1="490"  y1="212" x2="491"   y2="212" />
      <line class="xppline0"  x1="491"  y1="212" x2="492"   y2="212" />
      <line class="xppline0"  x1="492"  y1="212" x2="492"   y2="213" />
      <line class="xppline0"  x1="492"  y1="213" x2="493"   y2="213" />
      <line class="xppline0"  x1="493"  y1="213" x2="494"   y2="214" />
      <line class="xppline0"  x1="494"  y1="214" x2="495"   y2="214" />
      <line class="xppline0"  x1="495"  y1="214" x2="496"   y2="214" />
      <line class="xppline0"  x1="496"  y1="214" x2="496"   y2="215" />
      <line class="xppline0"  x1="496"  y1="215" x2="497"   y2="215" />
      <line class="xppline0"  x1="497"  y1="215" x2="498"   y2="215" />
      <line class="xppline0"  x1="498"  y1="215" x2="499"   y2="216" />
      <line class="xppline0"  x1="499"  y1="216" x2="500"   y2="216" />
      <line class="xppline0"  x1="500"  y1="216" x2="501"   y2="217" />
      <line class="xppline0"  x1="501"  y1="217" x2="502"   y2="217" />
      <line class="xppline0"  x1="502"  y1="217" x2="503"   y2="217" />
      <line class="xppline0"  x1="503"  y1="217" x2="504"   y2="218" />
      <line class="xppline0"  x1="504"  y1="218" x2="505"   y2="218" />
      <line class="xppline0"  x1="505"  y1="218" x2="506"   y2="219" />
      <line class="xppline0"  x1="506"  y1="219" x2="507"   y2="219" />
      <line class="xppline0"  x1="507"  y1="219" x2="508"   y2="220" />
      <line class="xppline0"  x1="508"  y1="220" x2="509"   y2="220" />
      <line class="xppline0"  x1="509"  y1="220" x2="510"   y2="221" />
      <line class="xppline0"  x1="510"  y1="221" x2="511"   y2="221" />
      <line class="xppline0"  x1="511"  y1="221" x2="512"   y2="222" />
      <line class="xppline0"  x1="512"  y1="222" x2="513"   y2="222" />
      <line class="xppline0"  x1="513"  y1="222" x2="514"   y2="223" />
      <line class="xppline0"  x1="514"  y1="223" x2="516"   y2="223" />
      <line class="xppline0"  x1="516"  y1="223" x2="517"   y2="224" />
      <line class="xppline0"  x1="517"  y1="224" x2="518"   y2="224" />
      <line class="xppline0"  x1="518"  y1="224" x2="519"   y2="225" />
      <line class="xppline0"  x1="519"  y1="225" x2="521"   y2="226" />
      <line class="xppline0"  x1="521"  y1="226" x2="522"   y2="226" />
      <line class="xppline0"  x1="522"  y1="226" x2="524"   y2="227" />
      <line class="xppline0"  x1="524"  y1="227" x2="525"   y2="227" />
      <line class="xppline0"  x1="525"  y1="227" x2="526"   y2="228" />
      <line class="xppline0"  x1="526"  y1="228" x2="528"   y2="229" />
      <line class="xppline0"  x1="528"  y1="229" x2="529"   y2="229" />
      <line class="xppline0"  x1="529"  y1="229" x2="531"   y2="230" />
      <line class="xppline0"  x1="531"  y1="230" x2="533"   y2="231" />
      <line class="xppline0"  x1="533"  y1="231" x2="534"   y2="232" />
      <line class="xppline0"  x1="534"  y1="232" x2="536"   y2="232" />
      <line class="xppline0"  x1="536"  y1="232" x2="538"   y2="233" />
      <line class="xppline0"  x1="538"  y1="233" x2="540"   y2="234" />
      <line class="xppline0"  x1="540"  y1="234" x2="541"   y2="235" />
</g>
      <line class="xppaxes"  x1="144"  y1="248" x2="369"   y2="329" />
      <line class="xppaxes"  x1="369"  y1="329" x2="594"   y2="248" />
      <line class="xppaxes"  x1="594"  y1="248" x2="369"   y2="167" />
      <line class="xppaxes"  x1="369"  y1="167" x2="144"   y2="248" />
      <line class="xppaxes"  x1="144"  y1="133" x2="369"   y2="214" />
      <line class="xppaxes"  x1="369"  y1="214" x2="594"   y2="133" />
      <line class="xppaxes"  x1="594"  y1="133" x2="369"   y2="52" />
      <line class="xppaxes"  x1="369"  y1="52" x2="144"   y2="133" />
      <line class="xppaxes"  x1="594"  y1="133" x2="594"   y2="248" />
      <line class="xppaxes"  x1="369"  y1="52" x2="369"   y2="167" />
      <line class="xppaxes"  x1="144"  y1="133" x2="144"   y2="248" />
      <line class="xppaxes"  x1="369"  y1="214" x2="369"   y2="329" />
      <line class="xppaxes"  x1="141"  y1="132" x2="147"   y2="134" />
      <line class="xppaxes"  x1="141"  y1="247" x2="147"   y2="249" />
      <line class="xppaxes"  x1="366"  y1="330" x2="372"   y2="328" />
      <line class="xppaxes"  x1="141"  y1="249" x2="147"   y2="247" />
      <line class="xppaxes"  x1="366"  y1="328" x2="372"   y2="330" />
      <line class="xppaxes"  x1="591"  y1="247" x2="598"   y2="249" />
      <line class="xppaxes"  x1="389"  y1="192" x2="389"   y2="77" />
      <line class="xppaxes"  x1="189"  y1="241" x2="414"   y2="160" />
      <line class="xppaxes"  x1="344"  y1="153" x2="569"   y2="234" />

      <text class="xppaxestext" text-anchor="end" x="131"  y="253"
      >-1</text>

      <text class="xppaxestext" text-anchor="end" x="355"  y="333"
      >4</text>

      <text class="xppaxestext" text-anchor="end" x="249"  y="291"
      ></text>

      <text class="xppaxestext" text-anchor="start" x="376"  y="331"
      >-8</text>

      <text class="xppaxestext" text-anchor="start" x="601"  y="251"
      >1</text>

      <text class="xppaxestext" text-anchor="start" x="489"  y="291"
      ></text>

      <text class="xppaxestext" text-anchor="end" x="131"  y="248"
      >-1</text>

      <text class="xppaxestext" text-anchor="end" x="131"  y="133"
      >4</text>

      <text class="xppaxestext" text-anchor="end" x="131"  y="191"
      ></text>
</svg>
